<svg version="1.1" id="Layer_1" xmlns="http://www.w3.org/2000/svg" xmlns:xlink="http://www.w3.org/1999/xlink" x="0px" y="0px"
	 width="100%" viewBox="0 0 500 500" enable-background="new 0 0 500 500" xml:space="preserve">
<path fill="#000000" opacity="1.000000" stroke="none" 
	d="
M286.000000,501.000000 
	C190.666687,501.000000 95.833382,501.000000 1.000051,501.000000 
	C1.000034,334.333405 1.000034,167.666794 1.000017,1.000140 
	C167.666565,1.000094 334.333130,1.000094 500.999756,1.000047 
	C500.999847,167.666519 500.999847,334.333038 500.999939,500.999786 
	C429.500000,501.000000 358.000000,501.000000 286.000000,501.000000 
M165.045425,266.499969 
	C165.043396,283.159515 164.820633,299.822693 165.096725,316.477631 
	C165.421936,336.096344 182.837875,353.669983 202.393768,353.744385 
	C254.371857,353.942108 306.351288,353.841888 358.329834,353.709442 
	C361.723450,353.700806 365.370483,352.999847 368.463837,351.633942 
	C387.450684,343.250275 395.790649,329.394867 394.861420,308.459930 
	C394.577393,302.061646 391.805756,299.478058 385.460419,299.497894 
	C379.801819,299.515533 374.141022,299.282440 368.484558,299.372314 
	C363.894135,299.445221 361.746552,297.554260 361.860046,292.822998 
	C362.015839,286.329926 361.854431,279.829590 361.853241,273.332367 
	C361.845123,229.516922 361.914276,185.701324 361.809204,141.886124 
	C361.758179,120.604095 345.872925,104.320740 325.202942,104.295235 
	C264.728546,104.220634 204.253662,104.144753 143.779816,104.335846 
	C131.349411,104.375122 121.473267,110.192932 114.328384,120.461319 
	C106.641327,131.508896 108.587952,144.066452 108.949295,156.276428 
	C109.152946,163.158127 111.144775,164.679459 117.967743,164.722839 
	C130.295609,164.801254 142.624329,164.736908 154.952621,164.760208 
	C164.469803,164.778183 164.982513,165.237106 164.994736,174.537369 
	C165.034531,204.858200 165.026016,235.179092 165.045425,266.499969 
z"/>
<path fill="#222222" opacity="1.000000" stroke="none" 
	d="
M165.040771,265.999969 
	C165.026016,235.179092 165.034531,204.858200 164.994736,174.537369 
	C164.982513,165.237106 164.469803,164.778183 154.952621,164.760208 
	C142.624329,164.736908 130.295609,164.801254 117.967743,164.722839 
	C111.144775,164.679459 109.152946,163.158127 108.949295,156.276428 
	C108.587952,144.066452 106.641327,131.508896 114.328384,120.461319 
	C121.473267,110.192932 131.349411,104.375122 143.779816,104.335846 
	C204.253662,104.144753 264.728546,104.220634 325.202942,104.295235 
	C345.872925,104.320740 361.758179,120.604095 361.809204,141.886124 
	C361.914276,185.701324 361.845123,229.516922 361.853241,273.332367 
	C361.854431,279.829590 362.015839,286.329926 361.860046,292.822998 
	C361.746552,297.554260 363.894135,299.445221 368.484558,299.372314 
	C374.141022,299.282440 379.801819,299.515533 385.460419,299.497894 
	C391.805756,299.478058 394.577393,302.061646 394.861420,308.459930 
	C395.790649,329.394867 387.450684,343.250275 368.463837,351.633942 
	C365.370483,352.999847 361.723450,353.700806 358.329834,353.709442 
	C306.351288,353.841888 254.371857,353.942108 202.393768,353.744385 
	C182.837875,353.669983 165.421936,336.096344 165.096725,316.477631 
	C164.820633,299.822693 165.043396,283.159515 165.040771,265.999969 
M314.051086,116.566864 
	C301.760162,116.373146 289.468781,116.007233 277.178406,116.037102 
	C266.219543,116.063736 255.260437,116.795631 244.303726,116.742767 
	C222.322693,116.636734 200.343674,116.161819 178.362823,115.936920 
	C170.836273,115.859909 170.655685,116.686981 172.722656,123.630569 
	C174.405151,129.282562 175.859650,135.265015 175.883957,141.107300 
	C176.118896,197.593231 176.007004,254.080505 176.049728,310.567383 
	C176.060394,324.659576 183.388779,335.803650 195.989334,340.557007 
	C198.201447,341.391479 201.566437,341.594238 203.449112,340.481537 
	C215.104111,333.593201 221.087570,323.309509 221.019531,309.529205 
	C220.976959,300.907379 222.246658,299.921967 231.039810,299.918549 
	C267.859741,299.904297 304.679688,299.902283 341.499634,299.885071 
	C349.957123,299.881104 350.845001,298.975861 350.981049,290.415558 
	C350.996948,289.416016 350.991150,288.416046 350.991211,287.416290 
	C350.992676,240.927078 350.996826,194.437851 350.986145,147.948639 
	C350.985565,145.451004 351.122192,142.913330 350.747589,140.462677 
	C349.105164,129.717697 344.617126,120.734535 333.185486,118.016556 
	C327.329865,116.624336 321.038818,117.063255 314.051086,116.566864 
M247.500015,343.095367 
	C258.990845,343.095886 270.481689,343.097656 281.972504,343.096649 
	C304.787445,343.094635 327.603302,343.211914 350.417084,343.047760 
	C367.084534,342.927856 379.353149,333.977814 382.672180,319.995239 
	C384.745728,311.259735 383.838959,310.076996 374.799164,310.071411 
	C334.331726,310.046326 293.864288,310.043671 253.396835,310.037811 
	C248.401001,310.037079 243.403412,310.153809 238.409882,310.053467 
	C234.084595,309.966553 232.094498,311.897430 231.749542,316.243225 
	C231.135117,323.983795 229.002350,331.228577 224.384537,337.700592 
	C221.754074,341.387268 222.719498,342.915253 227.516571,343.034302 
	C233.840988,343.191315 240.171906,343.087250 247.500015,343.095367 
M142.687988,116.071793 
	C128.618591,117.865479 119.300652,128.297791 119.101242,142.479416 
	C118.960800,152.467285 119.634377,153.147202 129.823395,153.172348 
	C136.982635,153.190033 144.141983,153.198639 151.301208,153.182480 
	C165.940399,153.149399 166.110580,152.954742 164.869934,138.303131 
	C163.792465,125.578690 154.876053,116.263000 142.687988,116.071793 
z"/>
<path fill="#000000" opacity="1.000000" stroke="none" 
	d="
M314.497833,116.620728 
	C321.038818,117.063255 327.329865,116.624336 333.185486,118.016556 
	C344.617126,120.734535 349.105164,129.717697 350.747589,140.462677 
	C351.122192,142.913330 350.985565,145.451004 350.986145,147.948639 
	C350.996826,194.437851 350.992676,240.927078 350.991211,287.416290 
	C350.991150,288.416046 350.996948,289.416016 350.981049,290.415558 
	C350.845001,298.975861 349.957123,299.881104 341.499634,299.885071 
	C304.679688,299.902283 267.859741,299.904297 231.039810,299.918549 
	C222.246658,299.921967 220.976959,300.907379 221.019531,309.529205 
	C221.087570,323.309509 215.104111,333.593201 203.449112,340.481537 
	C201.566437,341.594238 198.201447,341.391479 195.989334,340.557007 
	C183.388779,335.803650 176.060394,324.659576 176.049728,310.567383 
	C176.007004,254.080505 176.118896,197.593231 175.883957,141.107300 
	C175.859650,135.265015 174.405151,129.282562 172.722656,123.630569 
	C170.655685,116.686981 170.836273,115.859909 178.362823,115.936920 
	C200.343674,116.161819 222.322693,116.636734 244.303726,116.742767 
	C255.260437,116.795631 266.219543,116.063736 277.178406,116.037102 
	C289.468781,116.007233 301.760162,116.373146 314.497833,116.620728 
M294.946869,215.564468 
	C293.620880,214.867325 292.343811,214.048996 290.961609,213.491211 
	C270.577576,205.265305 255.475128,192.103348 249.637619,169.989136 
	C249.250198,168.521484 246.892487,166.643677 245.434906,166.629440 
	C243.699387,166.612503 241.741959,168.176819 240.277588,169.496475 
	C239.404190,170.283554 239.174866,171.886902 238.856934,173.172989 
	C235.881439,185.209061 228.881332,194.621750 219.056564,201.717606 
	C212.624374,206.363220 205.270096,209.713226 198.608032,214.070450 
	C196.485672,215.458542 194.004349,218.205963 193.982300,220.354950 
	C193.960663,222.460419 196.604599,224.883423 198.560211,226.626785 
	C200.111588,228.009750 202.368469,228.626877 204.350082,229.497635 
	C223.128601,237.749435 235.500458,251.305130 239.553802,271.817505 
	C240.167404,274.922791 242.118500,277.502869 245.346252,276.613220 
	C247.393570,276.048920 249.989807,273.645874 250.424683,271.650116 
	C255.119080,250.106552 268.959015,236.914627 288.568024,228.723679 
	C290.551666,227.895065 292.568451,226.979462 294.288666,225.720078 
	C298.208588,222.850281 298.427185,220.384888 294.946869,215.564468 
M298.977631,190.766251 
	C299.722076,192.794144 300.104980,195.075378 301.303162,196.785294 
	C302.776520,198.887894 304.930176,200.513824 306.789764,202.345795 
	C308.497040,200.564957 311.273163,199.018341 311.723785,196.962097 
	C313.529999,188.720261 318.467682,183.864227 326.200653,181.285141 
	C329.287903,180.255463 332.855072,178.706360 331.724182,174.876358 
	C331.040497,172.560837 328.338470,170.092789 325.966156,169.158096 
	C317.200958,165.704559 311.953308,159.843094 311.078064,150.340576 
	C310.810944,147.440643 310.609253,144.162079 306.895416,143.990829 
	C303.002930,143.811356 302.190765,147.077072 301.764343,150.176178 
	C300.466309,159.609955 295.816986,166.270081 286.365265,169.027039 
	C286.206573,169.073318 285.998474,169.114227 285.915070,169.230545 
	C284.373230,171.381134 281.754242,173.500656 281.668671,175.715820 
	C281.602173,177.436554 284.525787,179.497086 286.428131,181.022873 
	C290.376068,184.189346 294.528503,187.100830 298.977631,190.766251 
z"/>
<path fill="#000000" opacity="1.000000" stroke="none" 
	d="
M247.000031,343.095398 
	C240.171906,343.087250 233.840988,343.191315 227.516571,343.034302 
	C222.719498,342.915253 221.754074,341.387268 224.384537,337.700592 
	C229.002350,331.228577 231.135117,323.983795 231.749542,316.243225 
	C232.094498,311.897430 234.084595,309.966553 238.409882,310.053467 
	C243.403412,310.153809 248.401001,310.037079 253.396835,310.037811 
	C293.864288,310.043671 334.331726,310.046326 374.799164,310.071411 
	C383.838959,310.076996 384.745728,311.259735 382.672180,319.995239 
	C379.353149,333.977814 367.084534,342.927856 350.417084,343.047760 
	C327.603302,343.211914 304.787445,343.094635 281.972504,343.096649 
	C270.481689,343.097656 258.990845,343.095886 247.000031,343.095398 
z"/>
<path fill="#000000" opacity="1.000000" stroke="none" 
	d="
M143.118866,116.050003 
	C154.876053,116.263000 163.792465,125.578690 164.869934,138.303131 
	C166.110580,152.954742 165.940399,153.149399 151.301208,153.182480 
	C144.141983,153.198639 136.982635,153.190033 129.823395,153.172348 
	C119.634377,153.147202 118.960800,152.467285 119.101242,142.479416 
	C119.300652,128.297791 128.618591,117.865479 143.118866,116.050003 
z"/>
<path fill="#222222" opacity="1.000000" stroke="none" 
	d="
M295.230499,215.787628 
	C298.427185,220.384888 298.208588,222.850281 294.288666,225.720078 
	C292.568451,226.979462 290.551666,227.895065 288.568024,228.723679 
	C268.959015,236.914627 255.119080,250.106552 250.424683,271.650116 
	C249.989807,273.645874 247.393570,276.048920 245.346252,276.613220 
	C242.118500,277.502869 240.167404,274.922791 239.553802,271.817505 
	C235.500458,251.305130 223.128601,237.749435 204.350082,229.497635 
	C202.368469,228.626877 200.111588,228.009750 198.560211,226.626785 
	C196.604599,224.883423 193.960663,222.460419 193.982300,220.354950 
	C194.004349,218.205963 196.485672,215.458542 198.608032,214.070450 
	C205.270096,209.713226 212.624374,206.363220 219.056564,201.717606 
	C228.881332,194.621750 235.881439,185.209061 238.856934,173.172989 
	C239.174866,171.886902 239.404190,170.283554 240.277588,169.496475 
	C241.741959,168.176819 243.699387,166.612503 245.434906,166.629440 
	C246.892487,166.643677 249.250198,168.521484 249.637619,169.989136 
	C255.475128,192.103348 270.577576,205.265305 290.961609,213.491211 
	C292.343811,214.048996 293.620880,214.867325 295.230499,215.787628 
M241.552353,247.858994 
	C244.713806,253.504227 245.317703,253.573578 248.581573,248.419159 
	C255.522339,237.458130 264.787781,229.154541 276.510590,223.545761 
	C277.868530,222.896072 278.862885,221.486465 280.025787,220.429184 
	C278.969482,219.470947 278.064178,218.203339 276.833405,217.602539 
	C265.182129,211.915146 255.853531,203.625595 248.603134,192.916183 
	C247.641022,191.495071 246.403778,190.260239 244.652878,188.175995 
	C236.597198,202.976685 224.143463,211.955353 209.267349,220.633896 
	C223.187363,227.210434 234.102615,235.094757 241.552353,247.858994 
z"/>
<path fill="#222222" opacity="1.000000" stroke="none" 
	d="
M298.787262,190.441696 
	C294.528503,187.100830 290.376068,184.189346 286.428131,181.022873 
	C284.525787,179.497086 281.602173,177.436554 281.668671,175.715820 
	C281.754242,173.500656 284.373230,171.381134 285.915070,169.230545 
	C285.998474,169.114227 286.206573,169.073318 286.365265,169.027039 
	C295.816986,166.270081 300.466309,159.609955 301.764343,150.176178 
	C302.190765,147.077072 303.002930,143.811356 306.895416,143.990829 
	C310.609253,144.162079 310.810944,147.440643 311.078064,150.340576 
	C311.953308,159.843094 317.200958,165.704559 325.966156,169.158096 
	C328.338470,170.092789 331.040497,172.560837 331.724182,174.876358 
	C332.855072,178.706360 329.287903,180.255463 326.200653,181.285141 
	C318.467682,183.864227 313.529999,188.720261 311.723785,196.962097 
	C311.273163,199.018341 308.497040,200.564957 306.789764,202.345795 
	C304.930176,200.513824 302.776520,198.887894 301.303162,196.785294 
	C300.104980,195.075378 299.722076,192.794144 298.787262,190.441696 
M300.716278,178.007019 
	C301.777893,179.039551 302.717804,180.262161 303.939697,181.044281 
	C304.911713,181.666443 306.455994,182.333191 307.355988,181.981506 
	C314.934570,179.020279 315.616455,174.699478 309.886749,169.112335 
	C307.203064,166.495392 305.319763,166.436157 303.127380,169.477692 
	C302.279022,170.654587 300.986053,171.525116 299.844391,172.473465 
	C297.559357,174.371506 297.932678,176.051743 300.716278,178.007019 
z"/>
<path fill="#000000" opacity="1.000000" stroke="none" 
	d="
M241.383118,247.547546 
	C234.102615,235.094757 223.187363,227.210434 209.267349,220.633896 
	C224.143463,211.955353 236.597198,202.976685 244.652878,188.175995 
	C246.403778,190.260239 247.641022,191.495071 248.603134,192.916183 
	C255.853531,203.625595 265.182129,211.915146 276.833405,217.602539 
	C278.064178,218.203339 278.969482,219.470947 280.025787,220.429184 
	C278.862885,221.486465 277.868530,222.896072 276.510590,223.545761 
	C264.787781,229.154541 255.522339,237.458130 248.581573,248.419159 
	C245.317703,253.573578 244.713806,253.504227 241.383118,247.547546 
z"/>
<path fill="#000000" opacity="1.000000" stroke="none" 
	d="
M300.450867,177.817612 
	C297.932678,176.051743 297.559357,174.371506 299.844391,172.473465 
	C300.986053,171.525116 302.279022,170.654587 303.127380,169.477692 
	C305.319763,166.436157 307.203064,166.495392 309.886749,169.112335 
	C315.616455,174.699478 314.934570,179.020279 307.355988,181.981506 
	C306.455994,182.333191 304.911713,181.666443 303.939697,181.044281 
	C302.717804,180.262161 301.777893,179.039551 300.450867,177.817612 
z"/>
</svg>