<?xml version="1.0" standalone="no"?>
<!DOCTYPE svg PUBLIC "-//W3C//DTD SVG 20010904//EN" "http://www.w3.org/TR/2001/REC-SVG-20010904/DTD/svg10.dtd">
<svg xmlns="http://www.w3.org/2000/svg" version="1.0" width="500.000000pt" height="500.000000pt" viewBox="0 0 500.000000 500.000000" preserveAspectRatio="xMidYMid meet">
<metadata>
Created by potrace 1.16, written by Peter Selinger 2001-2019
<meta name="Producer" content="Online-Convert"/></metadata>
<g transform="translate(0.000000,500.000000) scale(0.100000,-0.100000)" fill="#000000" stroke="none">
<path d="M1364 3965 c-95 -22 -136 -47 -206 -120 -74 -78 -83 -109 -83 -293 0 -220 -27 -202 300 -202 l253 0 7 -112 c3 -62 5 -417 3 -788 l-3 -675 37 -75 c47 -97 104 -154 198 -199 l75 -36 850 0 850 0 63 34 c102 55 150 105 194 197 37 79 38 86 38 187 0 139 3 137 -181 137 l-137 0 -6 43 c-3 23 -5 391 -5 817 1 566 -2 788 -11 820 -34 129 -169 251 -293 265 -23 3 -459 6 -968 8 -665 2 -940 0 -975 -8z m139 -136 c35 -18 87 -71 102 -104 17 -37 35 -135 35 -191 l0 -42 -67 -8 c-103 -11 -364 2 -374 18 -13 20 2 158 22 205 20 48 51 78 112 110 47 25 133 31 170 12z m1844 -16 c71 -35 116 -88 132 -155 9 -40 11 -250 9 -843 l-3 -790 -625 -5 c-432 -3 -631 -8 -644 -16 -15 -9 -20 -30 -28 -114 -10 -110 -20 -139 -70 -195 -52 -60 -113 -97 -145 -89 -47 12 -131 71 -158 113 -56 84 -55 58 -55 1038 0 938 -1 957 -42 1031 -10 18 -18 37 -18 42 0 6 289 10 796 10 l795 0 56 -27z m473 -1938 c0 -13 -9 -54 -21 -89 -27 -81 -71 -129 -155 -167 l-64 -29 -686 0 c-654 0 -686 1 -672 18 42 47 77 130 89 210 l12 82 749 0 748 0 0 -25z"/>
<path d="M3018 3563 c-8 -10 -20 -47 -26 -82 -14 -78 -39 -107 -128 -150 -49 -23 -65 -37 -70 -57 -11 -43 2 -57 91 -95 50 -22 84 -59 101 -113 21 -65 40 -86 76 -86 29 0 49 29 62 92 9 39 52 86 102 108 23 11 47 20 52 20 17 0 42 37 42 62 0 32 -24 53 -78 69 -75 22 -132 99 -132 179 0 58 -59 92 -92 53z"/>
<path d="M2402 3343 c-12 -10 -27 -45 -36 -81 -34 -134 -164 -273 -337 -358 -94 -46 -109 -60 -109 -99 0 -33 16 -53 60 -72 122 -53 170 -83 242 -154 61 -59 85 -92 112 -150 18 -41 37 -94 41 -118 4 -24 16 -52 26 -62 42 -42 89 -12 109 71 14 63 60 160 97 205 49 60 140 127 233 172 52 26 103 53 113 61 27 23 22 76 -9 101 -15 12 -31 21 -35 21 -25 0 -162 76 -216 120 -58 47 -135 144 -160 200 -26 62 -33 83 -33 105 0 25 -33 55 -61 55 -9 0 -26 -8 -37 -17z m63 -256 c35 -74 152 -183 261 -242 27 -15 53 -31 57 -35 5 -4 -18 -22 -50 -40 -119 -67 -212 -155 -279 -266 -7 -11 -13 -17 -16 -14 -2 3 -26 38 -53 79 -59 87 -123 145 -223 198 l-72 40 27 12 c94 43 239 168 295 254 16 26 32 47 34 47 1 0 10 -15 19 -33z"/>
</g>
</svg>
